<?xml version="1.0" encoding="UTF-8" standalone="no"?>
<!-- Created with Inkscape (http://www.inkscape.org/) -->

<svg
   width="178pt"
   height="100pt"
   viewBox="0 0 62.794507 35.277813"
   version="1.1"
   id="svg5"
   xml:space="preserve"
   inkscape:version="1.2 (dc2aedaf03, 2022-05-15)"
   sodipodi:docname="ship.svg"
   xmlns:inkscape="http://www.inkscape.org/namespaces/inkscape"
   xmlns:sodipodi="http://sodipodi.sourceforge.net/DTD/sodipodi-0.dtd"
   xmlns:xlink="http://www.w3.org/1999/xlink"
   xmlns="http://www.w3.org/2000/svg"
   xmlns:svg="http://www.w3.org/2000/svg"><sodipodi:namedview
     id="namedview7"
     pagecolor="#ffffff"
     bordercolor="#000000"
     borderopacity="0.25"
     inkscape:showpageshadow="2"
     inkscape:pageopacity="0.0"
     inkscape:pagecheckerboard="true"
     inkscape:deskcolor="#d1d1d1"
     inkscape:document-units="mm"
     showgrid="false"
     showguides="false"
     inkscape:zoom="4"
     inkscape:cx="121.875"
     inkscape:cy="82.125"
     inkscape:window-width="1920"
     inkscape:window-height="1001"
     inkscape:window-x="-9"
     inkscape:window-y="-9"
     inkscape:window-maximized="1"
     inkscape:current-layer="layer1"
     inkscape:pageshadow="2"
     inkscape:snap-global="false" /><defs
     id="defs2"><inkscape:perspective
       sodipodi:type="inkscape:persp3d"
       inkscape:vp_x="0 : -24.694821 : 1"
       inkscape:vp_y="0 : 999.99997 : 0"
       inkscape:vp_z="338.66701 : -24.694821 : 1"
       inkscape:persp3d-origin="169.33351 : -56.444854 : 1"
       id="perspective8501" /><linearGradient
       inkscape:collect="always"
       id="linearGradient7718"><stop
         style="stop-color:#000000;stop-opacity:0.55924791;"
         offset="0"
         id="stop7714" /><stop
         style="stop-color:#000000;stop-opacity:0.50824863;"
         offset="0.5"
         id="stop7722" /><stop
         style="stop-color:#000000;stop-opacity:0;"
         offset="1"
         id="stop7716" /></linearGradient><linearGradient
       inkscape:collect="always"
       id="linearGradient1848"><stop
         style="stop-color:#0a3a7d;stop-opacity:1;"
         offset="0"
         id="stop1842" /><stop
         style="stop-color:#2689ff;stop-opacity:1;"
         offset="0.72840995"
         id="stop1844" /><stop
         style="stop-color:#3179d6;stop-opacity:1;"
         offset="0.88147682"
         id="stop1852" /><stop
         style="stop-color:#175aad;stop-opacity:1;"
         offset="1"
         id="stop1846" /></linearGradient><linearGradient
       inkscape:collect="always"
       id="linearGradient1163"><stop
         style="stop-color:#614d19;stop-opacity:1;"
         offset="0"
         id="stop1159" /><stop
         style="stop-color:#b99330;stop-opacity:1;"
         offset="1"
         id="stop1161" /></linearGradient><linearGradient
       inkscape:collect="always"
       id="linearGradient9286"><stop
         style="stop-color:#d4ddf1;stop-opacity:1;"
         offset="0"
         id="stop9282" /><stop
         style="stop-color:#191a29;stop-opacity:1;"
         offset="1"
         id="stop9284" /></linearGradient><linearGradient
       inkscape:collect="always"
       id="linearGradient9226"><stop
         style="stop-color:#3c231a;stop-opacity:1;"
         offset="0"
         id="stop9222" /><stop
         style="stop-color:#a77f48;stop-opacity:1;"
         offset="1"
         id="stop9224" /></linearGradient><linearGradient
       inkscape:collect="always"
       id="linearGradient15602"><stop
         style="stop-color:#70592d;stop-opacity:1;"
         offset="0"
         id="stop15598" /><stop
         style="stop-color:#c9a55c;stop-opacity:1;"
         offset="0.65065414"
         id="stop15606" /></linearGradient><linearGradient
       inkscape:collect="always"
       id="linearGradient15501"><stop
         style="stop-color:#beab78;stop-opacity:1;"
         offset="0"
         id="stop15497" /><stop
         style="stop-color:#6c572f;stop-opacity:1;"
         offset="0.35272759"
         id="stop15505" /><stop
         style="stop-color:#84682b;stop-opacity:1;"
         offset="0.80493033"
         id="stop15507" /><stop
         style="stop-color:#ac8439;stop-opacity:1;"
         offset="1"
         id="stop15499" /></linearGradient><linearGradient
       inkscape:collect="always"
       id="linearGradient12033"><stop
         style="stop-color:#988149;stop-opacity:1;"
         offset="0"
         id="stop12029" /><stop
         style="stop-color:#c7ad65;stop-opacity:1;"
         offset="1"
         id="stop12031" /></linearGradient><linearGradient
       inkscape:collect="always"
       id="linearGradient1059"><stop
         style="stop-color:#3b7de7;stop-opacity:1;"
         offset="0"
         id="stop1055" /><stop
         style="stop-color:#66ccdd;stop-opacity:1;"
         offset="0.59287208"
         id="stop1112" /><stop
         style="stop-color:#a6e1d9;stop-opacity:1;"
         offset="0.87786162"
         id="stop1110" /><stop
         style="stop-color:#ddf5f1;stop-opacity:1;"
         offset="1"
         id="stop1057" /></linearGradient><linearGradient
       inkscape:collect="always"
       xlink:href="#linearGradient1059"
       id="linearGradient1061"
       x1="0.81828779"
       y1="9.6278181"
       x2="0.81828779"
       y2="99.542114"
       gradientUnits="userSpaceOnUse"
       gradientTransform="scale(0.18573165,0.17412342)" /><linearGradient
       inkscape:collect="always"
       xlink:href="#linearGradient12033"
       id="linearGradient12035"
       x1="148.72133"
       y1="126.52519"
       x2="183.08748"
       y2="126.52519"
       gradientUnits="userSpaceOnUse"
       gradientTransform="scale(0.18573165)" /><linearGradient
       inkscape:collect="always"
       xlink:href="#linearGradient15501"
       id="linearGradient15503"
       x1="159.80997"
       y1="110.51434"
       x2="165.29477"
       y2="110.61287"
       gradientUnits="userSpaceOnUse"
       gradientTransform="matrix(0.14533317,0,0,0.22471408,6.8062395,-4.8602526)" /><linearGradient
       inkscape:collect="always"
       xlink:href="#linearGradient15602"
       id="linearGradient15604"
       x1="147.50615"
       y1="98.391464"
       x2="147.50615"
       y2="100.34947"
       gradientUnits="userSpaceOnUse"
       gradientTransform="matrix(0.22069965,0,0,0.13214155,-5.8692087,4.2822808)" /><linearGradient
       inkscape:collect="always"
       xlink:href="#linearGradient9226"
       id="linearGradient9228"
       x1="136.04933"
       y1="180.758"
       x2="179.84804"
       y2="180.758"
       gradientUnits="userSpaceOnUse"
       gradientTransform="scale(0.18573165)" /><linearGradient
       inkscape:collect="always"
       xlink:href="#linearGradient9286"
       id="linearGradient9288"
       x1="179.19933"
       y1="94.540367"
       x2="179.19933"
       y2="97.523163"
       gradientUnits="userSpaceOnUse"
       gradientTransform="matrix(0.18551007,0,0,0.26814057,0.03638248,-7.7254881)" /><linearGradient
       inkscape:collect="always"
       xlink:href="#linearGradient1163"
       id="linearGradient1165"
       x1="125.55784"
       y1="170.21524"
       x2="201.38371"
       y2="170.21524"
       gradientUnits="userSpaceOnUse"
       spreadMethod="repeat"
       gradientTransform="scale(0.18573165)" /><linearGradient
       inkscape:collect="always"
       xlink:href="#linearGradient1848"
       id="linearGradient1850"
       x1="11.667117"
       y1="278.55627"
       x2="11.667117"
       y2="200.94809"
       gradientUnits="userSpaceOnUse"
       gradientTransform="matrix(0.18573165,0,0,0.18573165,-2.1669507,-19.158849)" /><linearGradient
       inkscape:collect="always"
       xlink:href="#linearGradient1163"
       id="linearGradient7573"
       gradientUnits="userSpaceOnUse"
       x1="125.55784"
       y1="170.21524"
       x2="201.38371"
       y2="170.21524"
       spreadMethod="repeat"
       gradientTransform="matrix(0.18573165,0,0,0.18573165,0.02218328,2.4921855)" /><radialGradient
       inkscape:collect="always"
       xlink:href="#linearGradient7718"
       id="radialGradient7720"
       cx="157.0946"
       cy="154.25316"
       fx="157.0946"
       fy="154.25316"
       r="80.281212"
       gradientTransform="matrix(0.18573165,0,0,0.11418166,0,11.036812)"
       gradientUnits="userSpaceOnUse" /></defs><g
     inkscape:label="Layer 1"
     inkscape:groupmode="layer"
     id="layer1"><rect
       style="fill:url(#linearGradient1850);fill-opacity:1;stroke-width:0.0342326"
       id="rect140-4"
       width="62.901119"
       height="17.690941"
       x="2.169812e-06"
       y="17.690941" /><rect
       style="fill:url(#radialGradient7720);fill-opacity:1;stroke:none;stroke-width:0.0533049;stroke-linecap:round;stroke-linejoin:round;stroke-dasharray:none;stroke-opacity:1"
       id="rect7712"
       width="29.821524"
       height="18.333282"
       x="14.26668"
       y="19.483053" /><rect
       style="fill:url(#linearGradient1061);fill-opacity:1;stroke-width:0.0342326"
       id="rect140"
       width="62.901119"
       height="17.690941"
       x="0"
       y="0" /><path
       style="fill:#000000;stroke-width:0.0491414"
       d="m 25.991472,25.272582 c -0.0062,-0.111949 -0.01465,-0.06218 0.01485,-0.150721"
       id="path10338" /><path
       style="fill:url(#linearGradient12035);fill-opacity:1;stroke:#4b321b;stroke-width:0.0928659;stroke-dasharray:none;stroke-opacity:1"
       d="m 26.584868,21.60656 -0.472763,3.207148 -1.073309,0.232427 -1.582968,5.978295 c 2.462274,2.204288 11.489271,2.395318 13.753345,-0.127171 l -1.36495,-5.83829 -1.185155,-0.306693 -0.686686,-3.609637 C 33.774591,20.102927 33.05439,18.747393 31.590243,18.121976 l -0.80805,-0.701616 -0.11205,-1.6767 -0.25324,0.0517 -0.304222,1.699384 -0.824579,0.59402 c -1.753746,0.677151 -2.469378,1.783312 -2.703234,3.517796 z"
       id="path10340"
       sodipodi:nodetypes="sccccccsccccccs" /><path
       id="path7305-3-6-7-5-3"
       style="fill:none;stroke:#714f30;stroke-width:0.0464329;stroke-linecap:butt;stroke-linejoin:miter;stroke-dasharray:none;stroke-opacity:1"
       d="m 25.511072,32.019187 h 9.600211 M 23.574592,30.769111 H 37.193009 M 24.821911,25.304248 h 11.098301 m -11.22625,0.910918 H 36.080318 M 24.35757,27.380215 h 12.066336 m -12.443094,1.051358 h 12.817112 m -12.997722,1.133583 h 12.95693"
       sodipodi:nodetypes="cccccccccccccc" /><path
       style="fill:#b99330;fill-opacity:1;stroke:#2e211c;stroke-width:0.0464329;stroke-linecap:round;stroke-linejoin:round"
       d="m 24.466446,27.186393 c 0.171977,0.08771 -0.03888,0.968202 0.22751,0.668735 l -0.692171,2.553711 -0.451508,-0.272265 z"
       id="path1375"
       sodipodi:nodetypes="ccccc" /><g
       id="g3982"
       transform="matrix(0.18573166,0,0,0.18573166,0.46580209,-0.12233135)"><path
         style="fill:#000000;fill-opacity:0.330256;stroke:none;stroke-width:0.25;stroke-linecap:round;stroke-linejoin:round;stroke-dasharray:none;stroke-opacity:1"
         d="m 136.7163,159.44775 -2.61549,4.61761 c -2.23888,0.89039 -5.67701,0.18428 -5.30787,-1.92746 l 2.65793,-3.24317 z"
         id="path3963"
         sodipodi:nodetypes="ccccc" /><path
         style="fill:#afa178;fill-opacity:1;stroke:#130d08;stroke-width:0.128807;stroke-linecap:round;stroke-linejoin:round;stroke-opacity:1"
         d="m 131.22217,153.74117 c -0.0325,1.64393 -0.68855,2.60083 0.66245,5.76897 1.62977,1.44617 4.11053,0.86281 4.8893,-0.21135 0.5506,-2.06527 0.68724,-4.13055 -0.18869,-6.19582 -2.21455,-1.09972 -4.34813,-0.67734 -5.36306,0.6382 z"
         id="path2105"
         sodipodi:nodetypes="ccccc" /><path
         id="path2040"
         style="fill:#665a3c;stroke:#2e1f11;stroke-width:0.128807;stroke-linecap:round;stroke-linejoin:round"
         d="m 136.53048,153.91981 c 0.0156,0.23705 0.0796,-0.12724 -0.12507,0.0858 -0.48089,0.50053 -1.61213,0.81098 -2.52869,0.87125 -0.83246,0.0548 -1.9699,-0.0946 -2.41276,-0.64148 -0.24469,-0.30219 -0.05,0.29893 -0.0682,0.0221 -0.0441,-0.67043 1.06961,-1.28949 2.48753,-1.38273 1.41791,-0.0933 2.60309,0.37465 2.64718,1.04507 z"
         sodipodi:nodetypes="sssssss" /><path
         style="fill:#7e704b;fill-opacity:1;stroke:none;stroke-width:0.128807;stroke-linecap:round;stroke-linejoin:round;stroke-opacity:1"
         d="m 131.29021,154.09258 c 0.25146,0.32447 0.37537,0.3877 0.56294,0.54205 -0.10015,1.79835 0.19908,3.45031 0.55164,5.19735 l -0.528,-0.28495 c -0.58971,-2.08552 -1.06553,-2.43216 -0.58658,-5.45445 z"
         id="path2170"
         sodipodi:nodetypes="ccccc" /><path
         style="fill:#cabb97;fill-opacity:1;stroke:none;stroke-width:0.128807;stroke-linecap:round;stroke-linejoin:round;stroke-opacity:1"
         d="m 133.31731,154.94935 c 0.0457,1.78252 0.28306,3.56869 0.49788,5.32175 l -0.53579,-0.0807 c -0.58972,-2.08553 -0.76577,-2.35496 -0.71729,-5.3295 0.24161,0.0303 0.62359,0.0597 0.7552,0.0885 z"
         id="path2170-7"
         sodipodi:nodetypes="ccccc" /><path
         style="fill:#907c49;fill-opacity:1;stroke:none;stroke-width:0.128807;stroke-linecap:round;stroke-linejoin:round;stroke-opacity:1"
         d="m 134.80392,154.81378 c 0.0992,1.78034 0.0331,3.68108 -0.0386,5.4458 l 0.52746,-0.12399 c 0.41841,-2.12653 0.52958,-2.55617 0.2397,-5.51695 -0.23834,0.0499 -0.59974,0.15572 -0.72857,0.19514 z"
         id="path2170-7-9"
         sodipodi:nodetypes="ccccc" /><path
         style="fill:#cabb97;fill-opacity:1;stroke:none;stroke-width:0.128807;stroke-linecap:round;stroke-linejoin:round;stroke-opacity:1"
         d="m 135.982,154.40925 c 0.21115,1.55304 0.45889,3.10017 -0.0641,5.49378 l 0.54338,-0.31002 c 0.41841,-2.12653 0.42194,-3.82162 0.14321,-5.59817 -0.23834,0.0499 -0.49371,0.37499 -0.62254,0.41441 z"
         id="path2170-7-9-2"
         sodipodi:nodetypes="ccccc" /><path
         id="path2317-0"
         style="fill:none;fill-opacity:1;stroke:#53371f;stroke-width:0.257614;stroke-linecap:round;stroke-linejoin:round;stroke-dasharray:none;stroke-opacity:1"
         d="m 131.28044,158.01657 c 1.96934,0.94633 4.84672,0.81452 5.85592,-0.74502 m -6.05576,-1.05595 c 1.26801,1.21953 5.15651,1.07789 6.16571,-0.48165" /><path
         id="path3106"
         style="fill:none;fill-opacity:1;stroke:#403125;stroke-width:0.128807;stroke-linecap:round;stroke-linejoin:round;stroke-dasharray:none;stroke-opacity:1"
         d="m 133.24654,154.80863 3.16694,-1.18702 m -4.08713,1.01027 3.75126,-1.39276 m -4.51217,0.67287 3.12692,-0.98246" /></g><path
       style="fill:url(#linearGradient1165);fill-opacity:1;stroke:#2e211c;stroke-width:0.0464329;stroke-linecap:round;stroke-linejoin:round"
       d="m 23.343282,30.128411 0.117715,0.939763 0.859847,0.850134 5.948863,1.233458 5.012262,-0.749976 1.899284,-1.547035 0.198865,-0.777804 -3.645613,1.111289 -4.548022,0.328533 -3.690214,-0.67813 z"
       id="path1134" /><path
       style="fill:url(#linearGradient9228);fill-opacity:1;stroke:#4b321b;stroke-width:0.0928659;stroke-linecap:round;stroke-linejoin:round;stroke-miterlimit:4;stroke-dasharray:none;stroke-opacity:1"
       d="m 23.455828,31.02443 0.730687,2.575448 0.599966,0.327016 0.939947,2.320795 h 9.351064 l 0.461909,-2.363277 0.701247,-0.333103 0.968525,-2.65405 C 34.47239,33.384116 26.39729,33.328384 23.455828,31.02443 Z"
       id="path236"
       sodipodi:nodetypes="ccccccccc" /><path
       style="fill:#ebcb8a;fill-opacity:1;stroke:none;stroke-width:0.0491414px;stroke-linecap:butt;stroke-linejoin:miter;stroke-opacity:1"
       d="m 26.112105,24.813708 8.546963,-0.06142 1.185155,0.306693 -10.805427,-0.01284 z"
       id="path9818"
       sodipodi:nodetypes="ccccc" /><path
       id="path7305-3-6-7-5-3-2-1"
       style="fill:none;stroke:#6c5139;stroke-width:0.0464329;stroke-linecap:butt;stroke-linejoin:miter;stroke-dasharray:none;stroke-opacity:1"
       d="m 33.580844,19.561309 0.959853,5.194648 m -1.487427,-5.875011 0.989708,5.87498 m -3.289976,-6.915979 v 6.931784 m 0.362163,-6.887722 0.229636,6.874023 m 0.219862,-6.638739 0.313999,6.6433 m 0.138777,-6.537588 0.551131,6.532611 m -0.03298,-6.230828 0.75423,6.243673 m -5.976877,-5.192593 -0.959852,5.194649 m 1.487427,-5.875011 -0.989709,5.874979 m 3.289977,-6.915978 v 6.931784 m -0.362164,-6.887722 -0.229635,6.874022 m -0.219862,-6.638739 -0.314,6.643301 m -0.138776,-6.537588 -0.551131,6.532611 m 0.03298,-6.230829 -0.754229,6.243674" /><path
       style="fill:#c5a660;fill-opacity:1;stroke:#a77637;stroke-width:0.0491414px;stroke-linecap:butt;stroke-linejoin:miter;stroke-opacity:1"
       d="m 29.052289,26.743171 0.08897,-0.274194 c 0.553581,-0.223118 0.922434,-0.721887 1.249137,-1.283553 l 0.291279,0.0017 c 0.300899,0.601813 0.720476,1.073525 1.380292,1.281881 l 0.04117,0.256725 z"
       id="path17408"
       sodipodi:nodetypes="ccccccc" /><path
       id="path8441"
       style="fill:#000000;fill-opacity:0.375399;stroke:none;stroke-width:0.0533049;stroke-linecap:round;stroke-linejoin:round;stroke-dasharray:none;stroke-opacity:1"
       d="m 30.574557,26.877906 -1.527899,0.234095 c 0.112147,0.09239 0.04544,0.278793 -0.111335,0.512434 -0.0026,3.6e-5 -0.0055,1.01e-4 -0.0058,0 -0.0018,-4.1e-4 -0.01156,-0.02632 -0.0217,-0.05759 -0.01015,-0.03126 -0.02498,-0.05841 -0.03302,-0.06028 -0.02104,-0.0048 -0.201238,0.02526 -0.219793,0.03667 -0.01078,0.0065 -0.01071,0.02904 -6.72e-4,0.07083 l 0.01497,0.06123 -0.06843,0.0217 c -0.03764,0.01196 -0.108402,0.03804 -0.157213,0.05797 l -0.08878,0.03629 -0.145697,-0.03149 c -0.08181,-0.01763 -0.153238,-0.03008 -0.162878,-0.02822 -0.0094,0.0018 -0.05329,0.02407 -0.09742,0.04953 -0.04414,0.02546 -0.08533,0.04889 -0.09156,0.05221 -0.0062,0.0033 -0.0099,0.01109 -0.0084,0.01737 0.0023,0.0093 0.02896,0.01737 0.146464,0.04425 0.141715,0.03242 0.143431,0.033 0.133699,0.04636 -0.0054,0.0074 -0.01904,0.02117 -0.03033,0.03052 -0.03038,0.02515 -0.08769,0.104311 -0.107305,0.148191 l -0.01718,0.0384 -0.10337,0.02265 c -0.341415,0.07479 -0.395841,0.08799 -0.40964,0.09934 -0.01461,0.012 -0.03443,0.133813 -0.02457,0.150975 0.0029,0.005 0.01458,0.0097 0.02582,0.01027 0.01123,5.05e-4 0.129752,-0.02571 0.263367,-0.05835 0.225187,-0.05502 0.275609,-0.0635 0.271912,-0.04578 -0.0032,0.01509 0.06631,0.08169 0.119879,0.114888 l 0.05759,0.03561 -0.180441,0.148287 c -0.143076,0.117573 -0.180237,0.150695 -0.179866,0.160093 8.52e-4,0.01688 0.232761,0.0708 0.265288,0.06172 0.01576,-0.0044 0.04984,-0.03041 0.136386,-0.103944 0.06341,-0.05389 0.143635,-0.12143 0.17833,-0.150113 l 0.06306,-0.05221 0.08571,0.0013 c 0.09789,0.0015 0.191479,-0.0041 0.274214,-0.01632 l 0.05711,-0.0084 0.03341,0.132547 c 0.02376,0.09437 0.03864,0.133071 0.05183,0.134372 0.02839,0.0027 0.285631,-0.08559 0.296961,-0.101932 0.0049,-0.0071 -0.0024,-0.04876 -0.01632,-0.09242 -0.01391,-0.04366 -0.03078,-0.09685 -0.03734,-0.118247 l -0.01209,-0.03887 0.0622,-0.02726 c 0.07317,-0.03209 0.184783,-0.0943 0.246188,-0.137155 l 0.04357,-0.03043 0.130243,0.02975 c 0.173599,0.03972 0.16626,0.04101 0.228335,-0.03819 0.02597,-0.03314 0.04553,-0.0653 0.04319,-0.07141 -0.0031,-0.0086 -0.03421,-0.01857 -0.133218,-0.04271 l -0.129189,-0.03148 0.01891,-0.0548 c 0.01043,-0.03015 0.01904,-0.06897 0.0191,-0.08628 5.7e-5,-0.01731 0.0049,-0.03544 0.01085,-0.04031 0.0059,-0.0049 0.06205,-0.02075 0.124678,-0.03512 0.06262,-0.01443 0.118977,-0.03045 0.125255,-0.03561 0.0051,-0.0042 -0.0019,-0.02467 -0.01247,-0.04616 0.438431,-0.14137 0.972899,-0.249252 1.607752,-0.322109 l 0.44429,-0.390348 z m -1.885902,0.923513 c 0.0013,-8.4e-5 0.0024,-6.4e-5 0.0032,9.7e-5 0.01369,0.0032 0.0262,0.05635 0.01535,0.06526 -0.0098,0.0081 -0.118851,-0.01526 -0.116807,-0.02505 7.54e-4,-0.0035 0.02137,-0.0146 0.04588,-0.02457 h 9.8e-5 c 0.02144,-0.0086 0.04318,-0.01514 0.05231,-0.01574 z m 0.819089,0.172189 c 1.86e-4,0.01614 -0.01172,0.05492 -0.02179,0.06431 -0.0087,0.0082 -0.0205,0.0076 -0.07985,-0.0042 -0.0063,-0.0012 -0.01106,-0.0022 -0.0166,-0.0034 0.03821,-0.01931 0.07771,-0.03822 0.118246,-0.05673 z m -1.12488,0.01507 c 0.02964,2.38e-4 0.178464,0.03383 0.171515,0.03954 -0.0099,0.0081 -0.21082,0.05155 -0.224304,0.04847 -0.01458,-0.0034 0.02797,-0.08029 0.04847,-0.08763 8.34e-4,-2.99e-4 0.0023,-3.99e-4 0.0043,-3.84e-4 z m 0.774842,0.172571 c 0.01542,0.0032 0.03464,0.0073 0.05941,0.01304 l 0.111528,0.02554 -0.01652,0.01354 c -0.02025,0.01664 -0.122602,0.067 -0.150112,0.07381 -0.01682,0.0041 -0.02352,-0.0054 -0.04041,-0.05778 -0.0043,-0.01349 -0.0079,-0.02605 -0.01104,-0.03734 0.01549,-0.01034 0.03111,-0.02065 0.04712,-0.03081 z m -0.688269,0.04713 c -0.02309,0.02655 -0.04622,0.05321 -0.06968,0.07995 l 0.02717,0.0011 c -0.0061,0.0038 -0.01073,0.0063 -0.01287,0.0065 -0.01838,0.0021 -0.07449,-0.04593 -0.06411,-0.0548 0.0049,-0.0041 0.05329,-0.01757 0.107498,-0.03005 z m 0.271142,0.09416 0.07851,0.0033 c 0.0069,0.02536 0.01091,0.05238 0.0053,0.05701 -0.0086,0.0071 -0.112273,0.01184 -0.136387,0.0064 -0.01458,-0.0034 -0.01018,-0.0094 0.04031,-0.05566 0.0041,-0.0038 0.0081,-0.0072 0.01228,-0.01095 z" /><path
       style="fill:#4b321b;fill-opacity:1;stroke:#a77637;stroke-width:0.0491414px;stroke-linecap:butt;stroke-linejoin:miter;stroke-opacity:1"
       d="m 32.103134,26.725703 c -0.99626,-0.237244 -1.231383,-0.751084 -1.318653,-1.318652 h -0.396072 c -0.331745,0.441609 -0.132971,0.865641 -1.33612,1.33612 v 0.350778 h 3.035397 z"
       id="path13404"
       sodipodi:nodetypes="ccccccc" /><path
       id="path8280"
       style="fill:#000000;fill-opacity:0.375399;stroke:none;stroke-width:0.0533049;stroke-linecap:round;stroke-linejoin:round;stroke-dasharray:none;stroke-opacity:1"
       d="m 33.795244,21.201679 a 0.04643281,0.04643281 0 0 0 -0.04472,0.01277 c -0.513876,0.53623 -1.076881,0.994451 -1.667548,1.409267 a 0.04643281,0.04643281 0 0 0 -0.04569,-0.03916 0.04643281,0.04643281 0 0 0 -0.04281,0.04933 l 0.0039,0.05366 c -0.499787,0.345392 -1.030993,0.641698 -1.563121,0.936666 a 0.04643281,0.04643281 0 0 0 -0.04674,-0.03734 0.04643281,0.04643281 0 0 0 -0.04098,0.05116 l 0.0039,0.0359 c -0.273848,0.150521 -0.548726,0.299733 -0.825232,0.446593 l 1.566096,-1.154058 -1.141005,-0.06451 -2.6928,1.890988 -1.133902,0.199927 -1.20579,0.682125 -0.44448,1.352735 1.469158,-0.893473 a 0.04643281,0.04643281 0 0 0 0.02371,-0.0066 c 0.04015,-0.02457 0.08375,-0.04397 0.1241,-0.06825 0.528427,-0.150559 1.037398,-0.25862 1.54172,-0.355125 l -3.85e-4,0.0029 a 0.04643281,0.04643281 0 0 0 0.04242,0.0501 0.04643281,0.04643281 0 0 0 0.05001,-0.04252 l 0.0026,-0.03263 c 0.935605,-0.175368 1.870313,-0.32764 2.827364,-0.504565 a 0.04643281,0.04643281 0 0 0 0.01047,0.0087 0.04643281,0.04643281 0 0 0 0.03119,-0.01709 0.04643281,0.04643281 0 0 0 0,-9.6e-5 0.04643281,0.04643281 0 0 0 0,-9.6e-5 0.04643281,0.04643281 0 0 0 0,-9.6e-5 0.04643281,0.04643281 0 0 0 0,-9.5e-5 c 0.507707,-0.09465 1.014714,-0.188001 1.55698,-0.334394 l 0.0019,0.02717 a 0.04643281,0.04643281 0 0 0 0.04933,0.04319 0.04643281,0.04643281 0 0 0 0.04319,-0.04971 l -0.0036,-0.04789 c 0.662888,-0.182802 1.354363,-0.410298 2.101855,-0.729829 a 0.04643281,0.04643281 0 0 0 0.02467,-0.06094 0.04643281,0.04643281 0 0 0 -0.06094,-0.02438 c -0.736441,0.314807 -1.418213,0.538749 -2.072487,0.719748 l -0.08955,-1.241014 c 0.632051,-0.374459 1.239425,-0.818142 1.804032,-1.379513 a 0.04643281,0.04643281 0 0 0 0,-0.06565 0.04643281,0.04643281 0 0 0 -0.06575,-3.83e-4 c -0.546002,0.542872 -1.133891,0.972712 -1.745865,1.338531 l -0.04578,-0.631546 c 0.610333,-0.425619 1.191664,-0.898649 1.723119,-1.453225 a 0.04643281,0.04643281 0 0 0 -0.0014,-0.06565 0.04643281,0.04643281 0 0 0 -0.02102,-0.01161 z m -1.789153,1.593643 0.04531,0.627226 c -0.501396,0.292966 -1.022401,0.53358 -1.55007,0.757373 l -0.05077,-0.455614 c 0.528895,-0.292359 1.056715,-0.586739 1.55554,-0.928985 z m 0.05298,0.729444 0.08773,1.214524 c -0.538186,0.145726 -1.042178,0.239059 -1.546805,0.333432 l -0.08773,-0.794516 c 0.525748,-0.222225 1.045251,-0.462788 1.546805,-0.75344 z m -1.696341,0.251754 0.04904,0.441506 c -0.518158,0.216708 -1.044633,0.413447 -1.572911,0.605439 l -0.0044,-0.193208 0.198198,-0.14608 c 0.447236,-0.229142 0.889672,-0.466323 1.330083,-0.707657 z m 0.05989,0.540172 0.086,0.774844 c -0.55724,0.102321 -1.113713,0.209209 -1.656318,0.295615 l -0.01095,-0.46358 c 0.530353,-0.192391 1.059111,-0.389216 1.581261,-0.606879 z m -1.679833,0.38104 0.0039,0.159805 c -0.329123,0.119431 -0.653792,0.250621 -0.982065,0.373647 l 0.0077,-0.09463 c 0.08666,-0.04458 0.173108,-0.08962 0.259435,-0.13485 l 0.421541,-0.09061 z m 0.0064,0.259911 0.01057,0.444769 c -0.338147,0.05416 -0.682742,0.118405 -1.024102,0.182171 l 0.02035,-0.24782 c 0.331439,-0.124364 0.659943,-0.258394 0.993195,-0.37912 z m -1.064891,0.118631 -1.91e-4,0.0019 c -0.0091,0.0047 -0.01828,0.0095 -0.02746,0.0143 l 0.02601,-0.01583 z m -0.0092,0.113927 -0.0069,0.08129 c -0.199275,0.07527 -0.393122,0.166921 -0.590944,0.246669 0.200183,-0.107909 0.395467,-0.223343 0.597855,-0.327963 z m -0.01564,0.18649 -0.01842,0.229583 c -0.389174,0.07419 -0.789148,0.171722 -1.192065,0.275364 0.39945,-0.178476 0.801524,-0.350223 1.210493,-0.504947 z" /><g
       id="g6615"
       transform="matrix(0.03644384,0,0,0.03644384,24.532557,20.981387)"><path
         style="fill:#a77637;stroke-width:0.264583"
         d="m 162.2059,162.62044 c -0.0795,-0.12865 -0.22365,-1.4406 -0.3203,-2.91544 -0.17134,-2.61458 -0.19289,-2.6852 -0.86323,-2.82893 -1.7663,-0.37874 -4.49625,-1.27657 -5.63297,-1.8526 -0.69006,-0.34967 -1.46697,-0.63026 -1.72647,-0.62352 -0.2595,0.007 -1.42431,0.89808 -2.58848,1.98076 -1.16417,1.08268 -2.25058,1.97014 -2.41424,1.97212 -0.5696,0.007 -4.33264,-2.94142 -4.33264,-3.39462 0,-0.24831 0.89297,-1.33847 1.98438,-2.4226 1.0914,-1.08412 1.98437,-2.16293 1.98437,-2.39735 0,-0.23442 -0.4161,-0.96031 -0.92467,-1.61308 -0.50857,-0.65277 -1.44509,-2.19036 -2.08115,-3.41686 l -1.15648,-2.23 -4.05751,-0.0733 c -3.10968,-0.0562 -4.15738,-0.16371 -4.48506,-0.46026 -0.23516,-0.21281 -0.71207,-1.59216 -1.05981,-3.06521 -0.83139,-3.52182 -0.97223,-3.41267 4.40351,-3.41267 h 4.03143 l 0.15909,-1.52135 c 0.22434,-2.14525 1.09595,-5.45243 1.92227,-7.2937 l 0.70268,-1.56578 -1.43913,-1.36112 c -0.79152,-0.74862 -2.76782,-2.60988 -4.39177,-4.13615 -1.62396,-1.52626 -3.02693,-3.03019 -3.11772,-3.34207 -0.20777,-0.71376 3.4214,-6.2625 4.18906,-6.40477 0.35598,-0.066 1.85755,1.26338 5.21472,4.61666 l 4.71478,4.70933 1.13528,-0.81152 c 1.64351,-1.1748 3.74591,-2.19047 6.16236,-2.97702 l 2.11667,-0.68897 -0.01,-2.51021 c -0.005,-1.38061 -0.0529,-4.61989 -0.10532,-7.19839 -0.0716,-3.51897 -0.0115,-4.78921 0.24078,-5.09323 0.51841,-0.624641 7.72441,-0.593316 8.24261,0.0358 0.28793,0.34958 0.36313,1.92063 0.36313,7.58716 v 7.1463 l 2.44664,0.84891 c 2.2759,0.78966 5.91845,2.69889 6.28708,3.29536 0.43243,0.69968 1.40434,-0.0559 5.23772,-4.07197 2.27451,-2.3829 4.37189,-4.39437 4.66086,-4.46993 0.28897,-0.0756 0.70612,-10e-4 0.927,0.16535 0.74482,0.56146 3.8563,5.32475 3.85631,5.90353 10e-6,0.54703 -0.92968,1.5145 -6.99487,7.27915 l -1.83551,1.74455 0.71654,1.59666 c 0.81837,1.82359 1.76212,5.29918 1.76746,6.5092 0.002,0.44966 0.0754,1.08546 0.16315,1.41288 0.15743,0.58743 0.21845,0.59531 4.6077,0.59531 3.63856,0 4.52179,0.0736 4.85269,0.40454 0.22249,0.22249 0.36017,0.54991 0.30595,0.7276 -0.0542,0.17769 -0.35905,1.41997 -0.67739,2.76062 -0.31835,1.34066 -0.72403,2.55808 -0.90151,2.70537 -0.18119,0.15038 -2.27645,0.29972 -4.77791,0.34058 l -4.4552,0.0728 -1.0819,2.13121 c -0.59504,1.17217 -1.53965,2.76571 -2.09912,3.54119 l -1.01722,1.40997 2.16774,2.17906 c 1.47818,1.4859 2.13744,2.33729 2.07249,2.67652 -0.1129,0.58978 -3.59357,3.27545 -4.24514,3.27553 -0.24852,4e-5 -1.4067,-0.89291 -2.57375,-1.98431 -1.16704,-1.09141 -2.16733,-1.98438 -2.22286,-1.98438 -0.0555,0 -0.98094,0.40527 -2.05646,0.9006 -1.07553,0.49532 -2.46151,1.0311 -3.07997,1.19062 -0.61847,0.15952 -1.60073,0.41368 -2.18282,0.56481 l -1.05833,0.27479 v 2.38844 c 0,3.39495 -0.0152,3.41199 -3.0364,3.41199 -1.36874,0 -2.55368,-0.10526 -2.63319,-0.23392 z m -0.68041,-13.14958 c 0,-1.45611 -0.10512,-2.49805 -0.24692,-2.4474 -0.58123,0.2076 -3.72183,3.19887 -3.72183,3.54486 0,0.20889 0.0343,0.37979 0.0763,0.37979 0.042,0 0.72658,0.23383 1.52136,0.51962 2.4205,0.87039 2.37109,0.912 2.37109,-1.99687 z m 8.92969,1.61913 c 0.76398,-0.35568 1.38906,-0.7452 1.38906,-0.86559 0,-0.34511 -3.02153,-3.24504 -3.38111,-3.24504 -0.23042,0 -0.32306,0.6828 -0.32306,2.38125 0,2.75914 0.0396,2.78876 2.31511,1.72938 z m -16.48028,-6.4818 c 1.81884,-1.83803 1.75589,-1.9232 -1.33634,-1.80791 -1.78549,0.0666 -2.08812,0.14463 -2.05822,0.53091 0.0426,0.55059 1.36469,2.85442 1.63802,2.85442 0.10756,0 0.89801,-0.70984 1.75654,-1.57742 z m 23.6948,-0.28374 c 0.29951,-0.58707 0.47349,-1.18238 0.38664,-1.32291 -0.23915,-0.38696 -3.56627,-0.32719 -3.56627,0.0641 0,0.43022 1.87243,2.32626 2.29728,2.32626 0.18579,0 0.58285,-0.48033 0.88235,-1.06741 z m -21.35658,-8.81028 c -0.11638,-0.19398 -1.26457,-1.3394 -2.55156,-2.54538 -1.95301,-1.83008 -2.39631,-2.13272 -2.68067,-1.83011 -0.46496,0.49477 -1.46165,3.27463 -1.46165,4.07665 v 0.65153 h 3.45273 c 2.8063,0 3.41312,-0.066 3.24115,-0.35269 z m 22.53119,0.10654 c 0.28021,-0.4534 -0.95653,-3.7226 -1.40826,-3.7226 -0.41707,0 -4.00431,3.37127 -4.00431,3.76322 0,0.29434 5.22981,0.25509 5.41257,-0.0406 z m -6.73549,-9.74886 c 0,-0.42161 -2.78688,-1.75423 -3.17148,-1.51653 -0.15115,0.0934 -0.2681,1.2809 -0.2681,2.72212 v 2.55643 l 1.71979,-1.70451 c 0.94589,-0.93747 1.71979,-1.86336 1.71979,-2.05751 z m -11.29687,0.53585 c -0.14124,-2.18006 -0.21387,-2.44709 -0.66564,-2.44709 -0.74682,0 -3.11874,1.07617 -3.11874,1.41501 0,0.44341 3.52338,3.8987 3.74725,3.67483 0.10762,-0.10762 0.12433,-1.29686 0.0371,-2.64275 z"
         id="path6619" /><path
         style="fill:#4b321b;fill-opacity:1;stroke-width:0.264583"
         d="m 162.49895,162.65593 c -0.0639,-0.10915 -0.13758,-1.36822 -0.16382,-2.79794 -0.0262,-1.42972 -0.10298,-2.73941 -0.17054,-2.91042 -0.0676,-0.171 -1.16174,-0.56367 -2.4315,-0.8726 -1.26975,-0.30893 -3.09408,-0.93401 -4.05406,-1.38907 -0.95998,-0.45505 -1.92244,-0.82737 -2.13881,-0.82737 -0.21637,0 -1.36755,0.905 -2.55817,2.01111 -1.50664,1.3997 -2.29629,1.96063 -2.5974,1.84509 -0.9155,-0.35131 -3.51286,-2.42059 -3.5202,-2.80449 -0.004,-0.22192 0.88526,-1.2905 1.97667,-2.37463 1.0914,-1.08412 1.98437,-2.19331 1.98437,-2.46486 0,-0.27155 -0.42447,-0.9889 -0.94327,-1.59412 -0.51879,-0.60522 -1.47905,-2.16979 -2.13391,-3.47684 -0.65485,-1.30704 -1.25192,-2.43814 -1.32682,-2.51354 -0.0749,-0.0754 -2.06143,-0.19663 -4.41453,-0.26939 l -4.27834,-0.13229 -0.57361,-2.11667 c -0.31549,-1.16416 -0.58338,-2.44408 -0.59531,-2.84427 l -0.0217,-0.7276 h 4.18042 c 4.59355,0 4.81541,-0.07 4.81541,-1.51928 0,-1.62546 0.8214,-4.9402 1.78238,-7.19276 l 0.95125,-2.22976 -4.55208,-4.38483 c -2.50364,-2.41165 -4.54746,-4.54107 -4.54181,-4.73202 0.0181,-0.61332 3.56198,-5.60593 3.97919,-5.60593 0.2214,0 2.42397,2.02406 4.89462,4.49791 2.53846,2.54177 4.70239,4.49792 4.97567,4.49792 0.26597,0 0.8626,-0.28822 1.32583,-0.64049 1.28573,-0.97773 5.08297,-2.73319 6.69024,-3.09288 0.78886,-0.17654 1.55243,-0.46332 1.69681,-0.63729 0.17283,-0.20824 0.17793,-2.70016 0.0149,-7.29403 -0.17205,-4.84909 -0.16249,-7.08025 0.0314,-7.31381 0.15341,-0.18485 0.17505,-0.33791 0.0481,-0.34013 -0.12696,-0.002 -0.0522,-0.11947 0.16604,-0.26054 0.21828,-0.14106 1.91074,-0.2583 3.76101,-0.260528 3.20621,-0.0039 3.37888,0.02351 3.67839,0.583148 0.2334,0.43612 0.26804,2.40059 0.13464,7.63475 -0.14208,5.57459 -0.10905,7.09968 0.15806,7.29702 0.18573,0.13722 1.23066,0.52646 2.32207,0.86498 2.29193,0.71089 3.79116,1.42933 5.78128,2.77041 0.7786,0.52469 1.55127,0.95397 1.71703,0.95397 0.16576,0 2.35118,-2.04728 4.85649,-4.54952 4.34075,-4.33544 4.57813,-4.52869 5.04444,-4.10669 0.86184,0.77996 3.50284,4.86013 3.50284,5.41167 0,0.34625 -1.47159,1.90872 -4.2083,4.46818 -2.31456,2.16466 -4.2848,4.1368 -4.3783,4.38253 -0.0964,0.25333 0.1118,1.00291 0.4808,1.73109 0.88156,1.7397 1.51005,3.98835 1.86859,6.68566 l 0.29894,2.24896 4.61606,0.0726 c 2.53883,0.04 4.71147,0.16806 4.82809,0.28468 0.2016,0.2016 -0.30498,2.89108 -0.89203,4.7359 l -0.27363,0.85989 -4.41126,0.004 c -2.42619,0.002 -4.54505,0.0915 -4.70858,0.19844 -0.16354,0.10691 -0.77833,1.14689 -1.3662,2.31105 -0.58788,1.16417 -1.49588,2.7116 -2.01777,3.43874 -0.5219,0.72714 -0.94891,1.49292 -0.94891,1.70173 0,0.20881 0.96231,1.36555 2.13846,2.57053 1.17616,1.20498 2.06811,2.30471 1.98212,2.44385 -0.27235,0.44067 -3.53865,2.67763 -3.9034,2.67328 -0.19221,-0.002 -1.33792,-0.91113 -2.54604,-2.01964 l -2.19656,-2.01548 -2.03677,0.93604 c -2.04506,0.93986 -3.94032,1.59461 -5.5447,1.91549 -1.21559,0.24314 -1.4348,0.85153 -1.3385,3.71489 0.0637,1.89478 -7.9e-4,2.52784 -0.26843,2.63 -0.55401,0.21152 -4.49802,0.15705 -4.6273,-0.0639 z m 3.6515,-1.7198 c 0.0754,-0.32742 0.16699,-1.60734 0.20348,-2.84427 l 0.0663,-2.24896 1.05834,-0.22752 c 2.64093,-0.56777 4.91322,-1.35001 6.70104,-2.30684 1.0662,-0.57063 2.12167,-1.03751 2.34549,-1.03751 0.22382,0 1.35002,0.91775 2.50267,2.03945 l 2.09574,2.03946 0.90106,-0.48526 c 1.497,-0.80619 1.41615,-1.11305 -0.90917,-3.45051 -1.1701,-1.17621 -2.12746,-2.2388 -2.12746,-2.36131 0,-0.12251 0.55388,-0.95346 1.23084,-1.84656 1.10588,-1.45896 3.26708,-5.55095 3.26708,-6.18585 0,-0.13791 0.21435,-0.44472 0.47633,-0.68181 0.39178,-0.35456 1.24872,-0.44403 4.82777,-0.50403 l 4.35143,-0.073 0.34096,-1.04158 c 0.56867,-1.73719 0.57028,-1.73654 -4.26725,-1.73654 -3.15767,0 -4.41268,-0.0902 -4.60246,-0.33073 -0.14352,-0.1819 -0.33981,-1.21855 -0.43621,-2.30366 -0.24478,-2.75543 -0.82651,-4.82916 -2.03433,-7.25198 -0.57062,-1.14463 -1.03749,-2.25158 -1.03749,-2.45987 0,-0.20829 1.93194,-2.26258 4.29321,-4.56509 l 4.29321,-4.18637 -0.75318,-1.08685 c -1.39092,-2.0071 -1.07046,-2.14938 -5.84756,2.5961 -2.62541,2.60802 -4.48078,4.25555 -4.69837,4.17205 -0.19777,-0.0759 -1.31753,-0.79027 -2.48834,-1.58751 -2.24973,-1.53189 -4.14738,-2.35856 -6.96981,-3.03625 -0.94588,-0.22712 -1.83885,-0.51969 -1.98437,-0.65016 -0.1569,-0.14068 -0.31842,-3.05862 -0.39688,-7.16981 l -0.13229,-6.93258 h -1.85208 -1.85208 l 0.0995,6.76076 c 0.087,5.91227 0.0468,6.81351 -0.32088,7.18114 -0.23121,0.23122 -1.30013,0.61612 -2.37538,0.85533 -2.32534,0.51734 -5.34169,1.91018 -7.24763,3.34669 -0.75774,0.5711 -1.59258,1.03837 -1.85519,1.03837 -0.26422,0 -2.36545,-1.89074 -4.7046,-4.23333 -2.32492,-2.32833 -4.37661,-4.23333 -4.5593,-4.23333 -0.46568,0 -1.96176,2.13405 -1.86803,2.6646 0.0425,0.24073 1.86327,2.14654 4.04608,4.23515 2.18281,2.0886 4.07613,4.00971 4.20737,4.26912 0.17542,0.34675 -0.0818,1.15504 -0.97115,3.05192 -1.25788,2.68285 -2.0456,5.74043 -2.0456,7.94013 0,0.70464 -0.14287,1.42403 -0.3175,1.59866 -0.21927,0.21928 -1.56986,0.3175 -4.36562,0.3175 -4.51714,0 -4.32895,-0.0958 -3.76963,1.91823 l 0.27554,0.99219 h 4.06971 c 4.52237,0 4.61313,0.0312 5.18088,1.78352 0.57426,1.77238 1.77979,3.93093 3.14638,5.63373 0.73507,0.91591 1.33649,1.79213 1.33649,1.94714 0,0.15502 -0.98226,1.27488 -2.18281,2.4886 l -2.18281,2.20675 0.91605,0.77534 c 0.50382,0.42643 1.01856,0.77533 1.14386,0.77533 0.12529,0 1.2224,-0.9525 2.43801,-2.11666 1.2156,-1.16417 2.26271,-2.11667 2.32691,-2.11667 0.0642,0 1.14886,0.52666 2.41036,1.17035 1.2821,0.65421 3.19366,1.36879 4.33443,1.62031 3.42689,0.75556 3.34156,0.71077 3.54595,1.86128 0.10128,0.57013 0.191,1.84027 0.19939,2.82254 l 0.0152,1.78594 h 1.18558 c 1.01248,0 1.20561,-0.0869 1.32271,-0.59532 z m -5.56109,-7.46746 c -1.88779,-0.41096 -4.86019,-1.71153 -5.39371,-2.36001 -0.34115,-0.41465 -0.054,-0.78135 3.04174,-3.88395 1.88015,-1.88433 3.64795,-3.4989 3.92843,-3.58792 1.02029,-0.32383 1.21175,0.4966 1.21175,5.19231 0,4.32575 -0.13514,5.06728 -0.91281,5.0084 -0.1528,-0.0116 -0.99673,-0.17754 -1.8754,-0.36883 z m 1.33301,-3.97577 c 0,-2.70907 -0.0366,-2.91559 -0.52917,-2.98526 -0.36219,-0.0512 -1.15427,0.55509 -2.51014,1.92147 -2.33726,2.35537 -2.318,2.58947 0.28854,3.50687 2.7541,0.96934 2.75077,0.9723 2.75077,-2.44308 z m 4.54201,3.92466 c -0.22046,-0.22046 -0.23492,-8.88821 -0.0158,-9.45926 0.36455,-0.95 1.34021,-0.36149 4.69073,2.82943 2.52401,2.40377 3.35127,3.34749 3.22145,3.67494 -0.48541,1.22437 -7.13761,3.71367 -7.89639,2.95489 z m 4.50339,-2.06123 c 0.97371,-0.44578 1.40564,-0.79691 1.40564,-1.14271 0,-0.49249 -3.67268,-4.02801 -4.18428,-4.02801 -0.14136,0 -0.3293,0.18833 -0.41762,0.41852 -0.22963,0.59839 -0.19907,5.27565 0.036,5.51072 0.28387,0.28388 1.54401,-0.0186 3.16026,-0.75852 z m -19.93907,-3.78165 c -0.96462,-1.05075 -2.99696,-4.84837 -2.99696,-5.60012 0,-0.97913 0.50355,-1.08061 5.36198,-1.08061 4.61759,0 5.75052,0.17202 5.75052,0.87317 0,0.444 -6.4002,6.79974 -6.8473,6.79974 -0.19656,0 -0.76726,-0.44648 -1.26824,-0.99218 z m 3.10086,-2.34848 c 1.67345,-1.5962 2.12105,-2.40383 1.53726,-2.77373 -0.19747,-0.12513 -1.44579,-0.22933 -2.77404,-0.23156 -2.83802,-0.005 -3.29267,0.25973 -2.74001,1.59399 0.45024,1.08696 1.7841,2.89988 2.13361,2.89988 0.15541,0 0.98484,-0.66986 1.84318,-1.48858 z m 19.3636,-0.16958 c -3.94645,-3.95993 -3.83891,-4.16267 2.20806,-4.16267 4.92874,0 5.14075,0.0817 4.60507,1.77569 -0.40166,1.27013 -1.74026,3.7306 -2.45264,4.50816 -0.9423,1.02853 -1.48422,0.76491 -4.36049,-2.12118 z m 3.98852,0.39171 c 0.23529,-0.25999 0.62219,-0.93796 0.85979,-1.50661 0.40633,-0.9725 0.40393,-1.05442 -0.0405,-1.37938 -0.48188,-0.35236 -3.41243,-0.48178 -4.18615,-0.18488 -0.67979,0.26086 -0.49662,0.66971 0.96151,2.14619 1.50999,1.52899 1.7685,1.62836 2.40533,0.92468 z m -29.85076,-8.09515 c -1.10399,-1.6849 1.61494,-9.42382 3.31089,-9.42382 0.47822,0 8.96925,7.94275 9.36453,8.75986 0.1553,0.32102 0.12159,0.6259 -0.0985,0.89114 -0.28149,0.33917 -1.27351,0.40317 -6.24923,0.40317 h -5.91463 z m 9.34891,-1.53176 c -0.0864,-0.58752 -5.24411,-5.51081 -5.77314,-5.51081 -0.73928,0 -2.47086,5.0336 -1.99593,5.80205 0.11147,0.18037 1.5706,0.28337 4.01437,0.28337 3.79002,0 3.83816,-0.007 3.7547,-0.57461 z m 12.63435,1.74634 c -0.22868,-0.22868 -0.41577,-0.51358 -0.41577,-0.63311 0,-0.11954 1.86202,-2.02214 4.13782,-4.22802 3.04137,-2.94791 4.28394,-3.98955 4.68921,-3.93095 1.01446,0.14669 2.63204,3.87123 2.97205,6.84324 0.26961,2.35668 0.25,2.36461 -5.84596,2.36461 -4.3032,0 -5.18801,-0.0664 -5.53735,-0.41577 z m 9.58561,-2.11829 c 0.0891,-0.91292 -0.83009,-3.60553 -1.38934,-4.06967 -0.28873,-0.23962 -0.85997,0.14495 -2.76814,1.86355 -3.36446,3.03025 -3.30863,3.19943 1.02116,3.09448 l 3.05681,-0.0741 z m -20.42717,-4.99872 c -5.58452,-5.19028 -5.81867,-5.63411 -3.66328,-6.94384 1.70452,-1.03575 3.59627,-1.80454 5.43589,-2.20908 2.28235,-0.5019 2.26385,-0.54279 2.47287,5.46782 0.0964,2.77238 0.0987,5.34586 0.005,5.71885 -0.34123,1.35957 -0.87352,1.10489 -4.25056,-2.03375 z m 2.53179,-1.00003 c 0.0551,-0.1819 0.038,-1.58089 -0.0378,-3.10886 l -0.13796,-2.77812 -0.97211,0.0284 c -1.20637,0.0352 -3.49732,1.14002 -3.60796,1.73989 -0.0484,0.26242 0.69907,1.2678 1.81957,2.4474 1.8014,1.8964 2.71135,2.41433 2.93629,1.67129 z m 5.25436,3.5173 c -0.43649,-0.81557 -0.0317,-11.03813 0.45303,-11.4404 0.52205,-0.43327 2.28496,0.0494 4.96711,1.36 2.4984,1.22079 3.43868,2.09149 3.21615,2.97814 -0.0844,0.33633 -1.74596,2.18839 -3.69232,4.11569 -3.61842,3.58297 -4.37892,4.04237 -4.94397,2.98657 z m 4.33466,-4.80628 c 0.9595,-1.03636 1.74456,-2.09158 1.74456,-2.34493 0,-0.30486 -0.5961,-0.7541 -1.76272,-1.32842 -2.46693,-1.21447 -2.58358,-1.1008 -2.67772,2.6093 -0.0702,2.76681 -0.0432,2.94834 0.43825,2.94834 0.29635,0 1.24993,-0.79589 2.25763,-1.88429 z"
         id="path6617" /></g><path
       id="path13551-7-3-1-9-3"
       style="color:#000000;fill:#8e5e21;stroke:#4b321b;stroke-width:0.0928659;stroke-linecap:round;stroke-linejoin:round;stroke-miterlimit:4;stroke-dasharray:none;stroke-opacity:1"
       d="m 31.643383,17.568662 c -0.05761,-0.0051 -0.108487,0.0374 -0.113543,0.09502 l -0.04136,0.471164 c -0.0052,0.05761 0.0374,0.108487 0.09502,0.113544 0.05747,0.0049 0.108098,-0.03756 0.113159,-0.09502 l 0.04175,-0.471163 c 0.0052,-0.05761 -0.03739,-0.108488 -0.09502,-0.113544 z m -2.507465,0.06863 c -0.05762,0.005 -0.1002,0.05593 -0.09502,0.113543 l 0.04165,0.471163 c 0.005,0.0575 0.05576,0.10003 0.113258,0.09502 0.05762,-0.005 0.1002,-0.05594 0.09502,-0.113544 l -0.04136,-0.471164 c -0.005,-0.05762 -0.05592,-0.1002 -0.113545,-0.09502 z m 3.186904,0.105864 c -0.05767,-0.003 -0.106869,0.04129 -0.109897,0.09896 l -0.03781,0.744034 c -0.003,0.05771 0.04134,0.106919 0.09905,0.109897 0.05781,0.003 0.107073,-0.04152 0.109895,-0.09934 l 0.03781,-0.744032 c 0.0027,-0.05756 -0.04149,-0.106533 -0.09905,-0.109513 z m -3.866343,0.06863 c -0.05755,0.003 -0.101845,0.05195 -0.09905,0.109514 l 0.03772,0.744031 c 0.0028,0.05782 0.05208,0.102349 0.109895,0.09934 0.05771,-0.003 0.102063,-0.05219 0.09905,-0.109896 l -0.03772,-0.744033 c -0.003,-0.05766 -0.05223,-0.10197 -0.109899,-0.09896 z m 4.476101,0.570118 c -0.05751,-0.0054 -0.108531,0.03683 -0.113928,0.09435 l -0.06094,0.651125 c -0.0054,0.05751 0.03683,0.108529 0.09435,0.113927 0.05751,0.0054 0.108531,-0.03683 0.113928,-0.09435 l 0.06094,-0.651125 c 0.0054,-0.05751 -0.03683,-0.108528 -0.09435,-0.113927 z m -5.085857,0.06863 c -0.05751,0.0054 -0.09977,0.05641 -0.09435,0.113928 l 0.06094,0.651125 c 0.0054,0.05751 0.05641,0.09976 0.113928,0.09435 0.05748,-0.0054 0.09967,-0.05645 0.09425,-0.113928 l -0.06094,-0.651134 c -0.0054,-0.05748 -0.05636,-0.09971 -0.113832,-0.09435 z m 5.636204,0.699019 c -0.05719,-0.0077 -0.109797,0.03238 -0.117575,0.08955 l -0.09214,0.690667 c -0.0077,0.05721 0.03243,0.109845 0.08964,0.117575 0.05715,0.0076 0.1097,-0.03241 0.117479,-0.08954 l 0.09252,-0.690765 c 0.0076,-0.05729 -0.03264,-0.109891 -0.08994,-0.117479 z m -6.186551,0.06863 c -0.05729,0.0076 -0.09756,0.0602 -0.08993,0.117479 l 0.09252,0.690767 c 0.0078,0.05713 0.06033,0.09719 0.117479,0.08954 0.05717,-0.0077 0.09728,-0.0603 0.08964,-0.117479 l -0.09214,-0.690769 c -0.0078,-0.05717 -0.06039,-0.09725 -0.117575,-0.08955 z m 6.541291,0.75296 c -0.0569,-0.0095 -0.11079,0.02874 -0.120455,0.08561 l -0.132356,0.779641 c -0.0097,0.05709 0.02877,0.111224 0.0859,0.120744 0.05689,0.0095 0.110789,-0.02874 0.120454,-0.08562 l 0.132067,-0.779545 c 0.0098,-0.05703 -0.02856,-0.111181 -0.08561,-0.120839 z m -6.896031,0.06863 c -0.05706,0.0096 -0.09542,0.06381 -0.08561,0.120838 l 0.132066,0.779545 c 0.0096,0.05683 0.0635,0.09513 0.12036,0.08562 0.05716,-0.0094 0.09573,-0.06361 0.086,-0.120742 l -0.132355,-0.779642 c -0.0096,-0.05688 -0.06356,-0.09518 -0.120455,-0.08561 z m 7.09442,0.947509 c -0.05586,-0.01435 -0.1128,0.01923 -0.127269,0.07505 l -0.163931,0.637017 c -0.0144,0.05601 0.0194,0.113068 0.07543,0.127364 0.05589,0.01435 0.112843,-0.01928 0.127269,-0.07515 l 0.164028,-0.637017 c 0.01432,-0.05601 -0.01951,-0.113016 -0.07553,-0.127269 z m -7.292905,0.06863 c -0.05604,0.0143 -0.08984,0.07135 -0.07544,0.127366 l 0.164029,0.636918 c 0.01443,0.05587 0.07138,0.0895 0.127268,0.07515 0.05604,-0.0143 0.08983,-0.07135 0.07543,-0.127367 l -0.163932,-0.63703 c -0.01447,-0.05588 -0.07147,-0.08947 -0.127364,-0.07505 z m 7.516441,0.756223 c -0.05592,-0.01441 -0.11294,0.01923 -0.127363,0.07515 l -0.163933,0.637016 c -0.01436,0.05585 0.01922,0.112801 0.07505,0.127269 0.05589,0.01441 0.112899,-0.01918 0.127366,-0.07505 l 0.163933,-0.637017 c 0.01441,-0.05589 -0.01918,-0.112896 -0.07505,-0.127363 z m -7.739883,0.06872 c -0.05583,0.01447 -0.08941,0.07141 -0.07505,0.127269 l 0.163934,0.637016 c 0.01447,0.05588 0.07147,0.08947 0.127364,0.07505 0.05584,-0.01447 0.08941,-0.07141 0.07505,-0.127268 l -0.163932,-0.637015 c -0.01447,-0.05588 -0.07147,-0.08947 -0.127366,-0.07505 z m 7.862833,0.840397 c -0.05589,-0.01441 -0.112899,0.01918 -0.127365,0.07505 l -0.163933,0.637015 c -0.01441,0.0559 0.01918,0.112899 0.07505,0.127366 0.05593,0.01441 0.112942,-0.01923 0.127365,-0.07515 l 0.163934,-0.63692 c 0.01441,-0.0559 -0.01918,-0.112897 -0.07505,-0.127363 z m -7.985781,0.06863 c -0.05588,0.01447 -0.08947,0.07147 -0.07505,0.127366 l 0.163933,0.637016 c 0.01447,0.05584 0.07141,0.08941 0.127268,0.07505 0.05593,-0.01443 0.08956,-0.07144 0.07515,-0.127366 l -0.164029,-0.637016 c -0.01447,-0.05584 -0.07141,-0.08941 -0.127269,-0.07505 z m 8.163536,0.907583 c -0.05589,-0.01441 -0.112899,0.01918 -0.127365,0.07505 l -0.163933,0.637015 c -0.0146,0.05599 0.01903,0.11319 0.07505,0.127653 0.05601,0.0144 0.113069,-0.01941 0.127363,-0.07543 l 0.163934,-0.637016 c 0.01435,-0.05586 -0.01922,-0.1128 -0.07505,-0.127268 z m -8.341291,0.06863 c -0.05584,0.01447 -0.08941,0.07141 -0.07505,0.127269 l 0.163931,0.637017 c 0.0143,0.05604 0.07135,0.08983 0.127366,0.07544 0.05603,-0.01447 0.08966,-0.07166 0.07505,-0.127654 l -0.163932,-0.637039 c -0.01447,-0.05588 -0.07147,-0.08947 -0.127366,-0.07505 z m 8.933291,0.292643 c -0.05661,-0.0145 -0.114266,0.0196 -0.128804,0.07621 l -0.166141,0.644598 c -0.01475,0.05674 0.01942,0.114655 0.07621,0.129188 0.05662,0.0145 0.114266,-0.0196 0.128805,-0.07621 l 0.166141,-0.644982 c 0.0145,-0.05661 -0.0196,-0.114264 -0.07621,-0.128803 z m -9.525292,0.06863 c -0.05661,0.01455 -0.09071,0.07219 -0.07621,0.128804 l 0.16614,0.644982 c 0.01455,0.05661 0.07219,0.09071 0.128803,0.07621 0.05676,-0.01458 0.09087,-0.07247 0.07612,-0.129186 L 25.75571,24.203559 c -0.01455,-0.05655 -0.07213,-0.09065 -0.128708,-0.07621 z m 10.119118,0.207411 c -0.06196,0.0087 -0.112511,0.05407 -0.128036,0.114696 l -0.242348,0.94127 c -0.02134,0.08267 0.02838,0.16698 0.111047,0.188313 0.08261,0.02128 0.166841,-0.02837 0.188216,-0.110953 l 0.242349,-0.941752 c 0.02134,-0.08264 -0.02832,-0.166935 -0.110953,-0.188311 -0.01968,-0.005 -0.04016,-0.0061 -0.06028,-0.0033 z m -10.712943,0.06863 c -0.02011,-0.0029 -0.04059,-0.0019 -0.06028,0.0033 -0.08264,0.02137 -0.132299,0.105674 -0.110952,0.188312 l 0.242251,0.941751 c 0.02137,0.08264 0.105674,0.132298 0.188312,0.110952 0.08263,-0.02134 0.132326,-0.105579 0.111049,-0.188215 l -0.242345,-0.941398 c -0.01553,-0.06062 -0.06608,-0.105907 -0.128037,-0.114694 z m 11.073443,1.325092 c -0.07435,0.01055 -0.135022,0.06483 -0.15376,0.137539 l -0.291201,1.131406 c -0.02549,0.09925 0.0342,0.200388 0.133411,0.226032 0.0994,0.02573 0.200822,-0.03407 0.226415,-0.133508 l 0.290914,-1.1315 c 0.02543,-0.09925 -0.03431,-0.200337 -0.133508,-0.225939 -0.02359,-0.0061 -0.04815,-0.0074 -0.07227,-0.0041 z m -11.433942,0.06863 c -0.02413,-0.0034 -0.04868,-0.002 -0.07227,0.0041 -0.09925,0.0256 -0.158996,0.126756 -0.133508,0.226031 l 0.290912,1.131407 c 0.0256,0.09939 0.126951,0.15918 0.22632,0.133507 0.09925,-0.0256 0.158995,-0.126756 0.133508,-0.22603 l -0.291298,-1.131408 c -0.01873,-0.07275 -0.07936,-0.127021 -0.153665,-0.137608 z"
       sodipodi:nodetypes="cccccccccccccccccccccccccccccccccccccccccccccccccccccccccccccccccccccccccccccccccccccccccccccccccccccccccccccccccccccccccccccccccccccccccccccccccccccccccccccccccccccccccccc" /><path
       style="fill:#b99330;fill-opacity:1;stroke:#2e211c;stroke-width:0.0464329;stroke-linecap:round;stroke-linejoin:round"
       d="m 36.291262,27.13621 c -0.171976,0.08771 0.03888,0.968203 -0.22751,0.668735 l 0.692172,2.553712 0.451508,-0.272266 z"
       id="path1375-3"
       sodipodi:nodetypes="ccccc" /><path
       id="path16850"
       style="color:#000000;fill:#c9a55c;stroke:#4b321b;stroke-width:0.0928659;stroke-linecap:round;stroke-linejoin:round;stroke-miterlimit:4;stroke-dasharray:none;stroke-opacity:1"
       d="m 37.291777,30.211849 c 0.08389,-0.03549 0.129662,-0.126594 0.108073,-0.21509 l -1.424529,-5.808487 c -0.01502,-0.06124 -0.06009,-0.110687 -0.119685,-0.131299 L 34.666163,23.64522 34.052372,20.316172 c -7.42e-4,-0.0038 -0.0017,-0.0075 -0.0026,-0.01124 -0.222847,-0.895464 -0.666515,-1.597138 -1.137645,-2.09197 -0.471129,-0.494833 -0.956514,-0.787819 -1.335265,-0.861607 -0.100687,-0.01953 -0.198141,0.04626 -0.217683,0.146945 -0.01954,0.100561 0.04603,0.197955 0.14656,0.21768 0.242472,0.04724 0.707129,0.300877 1.137645,0.753056 0.430101,0.45174 0.839404,1.09708 1.045505,1.923333 l 0.631545,3.42666 c 0.01214,0.06575 0.05871,0.11989 0.121893,0.141761 l 1.196289,0.413958 1.361087,5.550207 c -3.056129,1.269597 -4.300392,1.319566 -6.629018,1.361711 -2.325478,0.04209 -3.572885,-0.0079 -6.629013,-1.277535 l 1.361084,-5.550206 1.196384,-0.413961 c 0.06318,-0.02187 0.109738,-0.07601 0.121894,-0.141762 l 0.631545,-3.42666 c 0.206103,-0.826251 0.615404,-1.471591 1.045505,-1.923332 0.430517,-0.452179 0.895078,-0.705817 1.137548,-0.753055 0.100526,-0.01973 0.1661,-0.117119 0.146561,-0.217682 -0.01954,-0.100637 -0.116931,-0.166407 -0.217583,-0.146945 -0.378754,0.07379 -0.864237,0.366774 -1.335364,0.861608 -0.471128,0.494833 -0.914702,1.196505 -1.13755,2.09197 -8.85e-4,0.0037 -0.0019,0.0074 -0.0026,0.01124 l -0.613791,3.329049 -1.189473,0.411751 c -0.0596,0.02061 -0.104664,0.07005 -0.119685,0.131301 L 23.3416,30.080934 c -0.02158,0.0885 0.02418,0.179593 0.108073,0.21509 3.216647,1.357584 4.567551,1.403509 6.921035,1.361421 2.356604,-0.04215 3.704387,-0.08801 6.921031,-1.445596 z"
       sodipodi:nodetypes="cccccccscccscccccscccccscccscccccccscc" /><path
       style="fill:url(#linearGradient9288);fill-opacity:1;stroke:#222222;stroke-width:0.0591032;stroke-linecap:round;stroke-linejoin:round;stroke-dasharray:none;stroke-opacity:1"
       d="m 26.357036,17.601428 c 0.439801,0.477024 0.985528,0.943529 1.521055,0.108928 0.709266,0.0028 0.909428,0.974551 1.929953,0.01441 l 0.674094,-0.113221 0.80823,0.176984 c 0.647435,0.385422 1.105128,1.407376 1.958498,-0.08942 0.614205,0.910796 0.924628,0.364493 1.388524,-0.120504 -0.650343,0.237882 -1.140273,0.148028 -1.778928,-0.0097 l -2.340038,-0.03668 c -1.016323,0.235361 -1.702615,0.123606 -2.684154,-0.104552 z"
       id="path9280"
       sodipodi:nodetypes="ccccccccccc" /><path
       id="path12775-7-2-0"
       style="color:#000000;fill:#b39c85;fill-opacity:1;stroke:#271a0e;stroke-width:0.0464329;stroke-linecap:round;stroke-linejoin:round;stroke-dasharray:none;stroke-opacity:1"
       d="m 30.595942,17.7554 a 0.04643755,0.04643755 0 0 1 0.02902,0.01597 0.04643291,0.04643291 0 0 1 0.0069,3.71e-4 c 0.654932,0.765662 1.302924,1.406993 1.946916,1.975576 a 0.04643291,0.04643291 0 0 1 0.04134,0.02576 c 0.0017,0.0041 0.002,0.0054 0.0036,0.0094 0.474509,0.415665 0.947682,0.808718 1.415839,1.114027 a 0.04643291,0.04643291 0 0 1 0.01343,0.0642 0.04643291,0.04643291 0 0 1 -0.06421,0.01378 c -0.203172,-0.132497 -0.409319,-0.329441 -0.613424,-0.482468 0.04771,0.123202 0.09831,0.247481 0.127329,0.363847 0.03512,0.140857 0.03623,0.269937 3.72e-4,0.386334 0.246942,0.227001 0.492913,0.446054 0.73676,0.642444 a 0.04643291,0.04643291 0 0 1 0.0072,0.0653 0.04643291,0.04643291 0 0 1 -0.0653,0.0069 c -0.209553,-0.168769 -0.421572,-0.360876 -0.633375,-0.551752 0.127953,0.393304 0.225194,0.778115 0.161427,1.114026 0.277917,0.310149 0.551654,0.596156 0.821645,0.859372 a 0.04643291,0.04643291 0 0 1 7.44e-4,0.06566 0.04643291,0.04643291 0 0 1 -0.06566,7.44e-4 c -0.262678,-0.256149 -0.52974,-0.536474 -0.800193,-0.836897 a 0.04643291,0.04643291 0 0 1 -0.01198,0.0019 0.04643291,0.04643291 0 0 1 -0.03446,-0.05043 C 33.373836,22.28366 33.119559,21.960224 32.86321,21.624705 a 0.04643291,0.04643291 0 0 1 -0.03047,-0.03809 c -0.338693,-0.446191 -0.688175,-0.955374 -1.051997,-1.548611 a 0.04643291,0.04643291 0 0 1 -0.01959,0.0029 0.04643291,0.04643291 0 0 1 -0.0341,-0.05623 c 0.0038,-0.01539 -0.0024,-0.0138 7.42e-4,-0.02757 -0.374154,-0.616416 -0.760814,-1.306006 -1.170254,-2.129747 -8.86e-4,-0.0018 -0.0017,-0.0029 -0.0026,-0.0047 a 0.04643755,0.04643755 0 0 1 0,-0.0033 0.04643291,0.04643291 0 0 1 0.0022,-0.03882 0.04643755,0.04643755 0 0 1 0.0026,-0.004 0.04643291,0.04643291 0 0 1 0.0065,-0.0098 0.04643291,0.04643291 0 0 1 0.009,7.24e-4 0.04643755,0.04643755 0 0 1 0.02067,-0.01197 z m 0.387423,0.517654 c 0.202359,0.294383 0.405471,0.597908 0.604354,0.858646 0.005,-0.01162 0.01499,-0.034 0.01741,-0.04063 0.0064,-0.01729 0.0055,-0.0083 0.0029,-0.0145 -0.0026,-0.0062 -0.01599,-0.02718 -0.03664,-0.06421 -0.02064,-0.03702 -0.04801,-0.09142 -0.08126,-0.175574 a 0.04643291,0.04643291 0 0 1 0,-0.03374 C 31.321256,18.62813 31.152863,18.461047 30.983357,18.273058 Z m 0.03846,0.216567 c 0.240382,0.454661 0.483822,0.926225 0.711365,1.306651 -0.0017,-0.03845 0.0177,-0.103762 0.0043,-0.138937 -0.02957,-0.07798 -0.09448,-0.193285 -0.167957,-0.402297 -0.180465,-0.234235 -0.364603,-0.504103 -0.547762,-0.765417 z m 0.637364,0.490084 c 0.01406,0.02382 0.02657,0.04134 0.03482,0.06131 0.0099,0.02396 0.0076,0.05652 -0.0019,0.08235 -0.0077,0.02103 -0.02181,0.05206 -0.03772,0.08924 0.140669,0.182219 0.278793,0.340112 0.417896,0.507135 0.007,-0.0184 0.01809,-0.04415 0.0214,-0.0566 0.0068,-0.02565 0.0074,-0.03866 0.0029,-0.05913 -0.009,-0.04093 -0.04871,-0.112887 -0.114631,-0.279686 a 0.04643291,0.04643291 0 0 1 -7.43e-4,-0.0079 C 31.8743,19.213375 31.766256,19.088113 31.659087,18.979757 Z m 0.491535,0.513664 c 0.0093,0.02309 0.03208,0.06996 0.03664,0.09069 0.0073,0.03359 0.0057,0.06765 -0.0036,0.103024 -0.0081,0.03067 -0.02357,0.06738 -0.04172,0.111367 0.0017,0.0049 0.0017,0.0049 0.0033,0.0097 0.170024,0.201439 0.339929,0.402264 0.507861,0.583315 0.02217,-0.07416 0.03667,-0.139529 0.01886,-0.213665 -0.02024,-0.08429 -0.06902,-0.195088 -0.126602,-0.338815 -0.13161,-0.115636 -0.262684,-0.221843 -0.39468,-0.345708 z m -0.377629,0.009 c 0.01467,0.0311 0.04049,0.09378 0.05115,0.121886 0.0293,0.07728 0.01568,0.180554 -0.0054,0.302538 0.12093,0.198837 0.234824,0.357408 0.3526,0.53797 0.01534,-0.08288 0.03705,-0.171335 0.02503,-0.227448 -0.01614,-0.0753 -0.06695,-0.192955 -0.13313,-0.383071 -0.09643,-0.114469 -0.193077,-0.230339 -0.290206,-0.351875 z m 0.912334,0.446553 c 0.02717,0.06847 0.06312,0.15009 0.07691,0.207497 0.02324,0.09678 0.01216,0.190338 -0.02503,0.294197 0.0051,0.01536 0.0072,0.02492 0.01233,0.03991 0.223229,0.236325 0.446287,0.470539 0.666385,0.676178 0.01545,-0.08478 0.02531,-0.173778 -0.0033,-0.288391 -0.03656,-0.14662 -0.101341,-0.310306 -0.166505,-0.47521 a 0.04643291,0.04643291 0 0 1 -0.0015,-0.01416 C 33.058457,20.245462 32.872492,20.109321 32.685398,19.948952 Z M 32.231982,20.0592 c 0.01563,0.04352 0.0472,0.12184 0.05514,0.158887 0.021,0.098 0.006,0.192338 -0.03664,0.367475 0.19619,0.296024 0.393889,0.60068 0.582588,0.853204 0.03096,-0.277188 -0.04089,-0.534385 -0.165418,-0.900002 -0.144484,-0.153395 -0.28972,-0.311561 -0.43567,-0.479564 z m 0.57896,0.626844 c 0.104573,0.311047 0.172969,0.575163 0.112455,0.865539 0.234689,0.308012 0.468404,0.610584 0.694318,0.867353 0.03464,-0.328817 -0.0612,-0.717575 -0.198066,-1.125999 -0.201242,-0.185727 -0.40496,-0.396312 -0.608707,-0.606893 z M 30.13633,18.059895 a 0.04643755,0.04643755 0 0 0 -0.02902,0.01597 0.04643291,0.04643291 0 0 0 -0.0069,3.73e-4 c -0.654933,0.765661 -1.302925,1.406993 -1.946918,1.975576 a 0.04643291,0.04643291 0 0 0 -0.04134,0.02576 c -0.0017,0.0041 -0.002,0.0054 -0.0036,0.0094 -0.474509,0.415665 -0.947683,0.808718 -1.41584,1.114027 a 0.04643291,0.04643291 0 0 0 -0.01343,0.06421 0.04643291,0.04643291 0 0 0 0.06421,0.01378 c 0.203172,-0.132497 0.40932,-0.329441 0.613424,-0.482467 -0.04771,0.123201 -0.09831,0.247482 -0.127328,0.363846 -0.03512,0.140858 -0.03623,0.269937 -3.72e-4,0.386334 -0.246941,0.227002 -0.492913,0.446054 -0.73676,0.642445 a 0.04643291,0.04643291 0 0 0 -0.0072,0.0653 0.04643291,0.04643291 0 0 0 0.0653,0.0069 c 0.209553,-0.168771 0.42157,-0.360876 0.633373,-0.551753 -0.127951,0.393303 -0.225193,0.778115 -0.161425,1.114026 -0.277917,0.310149 -0.551654,0.596156 -0.821647,0.859373 a 0.04643291,0.04643291 0 0 0 -7.42e-4,0.06566 0.04643291,0.04643291 0 0 0 0.06566,7.43e-4 c 0.262728,-0.256133 0.52979,-0.536458 0.800243,-0.836881 a 0.04643291,0.04643291 0 0 0 0.01198,0.0019 0.04643291,0.04643291 0 0 0 0.03446,-0.05043 c 0.246087,-0.275868 0.500363,-0.599306 0.756713,-0.934825 a 0.04643291,0.04643291 0 0 0 0.03047,-0.03809 c 0.338693,-0.446191 0.688175,-0.955374 1.051996,-1.54861 a 0.04643291,0.04643291 0 0 0 0.0196,0.0029 0.04643291,0.04643291 0 0 0 0.0341,-0.05623 c -0.0038,-0.01539 0.0024,-0.01381 -7.42e-4,-0.02758 0.374153,-0.616418 0.760814,-1.306008 1.170253,-2.129748 8.86e-4,-0.0018 0.0017,-0.0029 0.0026,-0.0047 a 0.04643755,0.04643755 0 0 0 0,-0.0033 0.04643291,0.04643291 0 0 0 -0.0022,-0.03882 0.04643755,0.04643755 0 0 0 -0.0026,-0.004 0.04643291,0.04643291 0 0 0 -0.0065,-0.0098 0.04643291,0.04643291 0 0 0 -0.009,7.24e-4 0.04643755,0.04643755 0 0 0 -0.02067,-0.01197 z m -0.387423,0.517653 c -0.202359,0.294383 -0.405472,0.59791 -0.604355,0.858647 -0.005,-0.01162 -0.01499,-0.034 -0.01741,-0.04063 -0.0064,-0.01729 -0.0055,-0.0083 -0.0029,-0.0145 0.0026,-0.0062 0.01599,-0.0272 0.03664,-0.0642 0.02064,-0.03702 0.048,-0.09142 0.08125,-0.175575 a 0.04643291,0.04643291 0 0 0 0,-0.03374 c 0.168874,-0.174915 0.337267,-0.341998 0.506773,-0.529988 z m -0.03846,0.216568 c -0.240381,0.454661 -0.48382,0.926225 -0.711364,1.306651 0.0017,-0.03845 -0.0177,-0.103762 -0.0043,-0.138937 0.02957,-0.07798 0.09448,-0.193284 0.167957,-0.402296 0.180464,-0.234236 0.364602,-0.504103 0.547761,-0.765418 z M 29.073083,19.2842 c -0.01406,0.02382 -0.02657,0.04134 -0.03482,0.06131 -0.0099,0.02396 -0.0076,0.05652 0.0019,0.08235 0.0077,0.02103 0.02181,0.05206 0.03772,0.08924 -0.140667,0.18222 -0.278792,0.340112 -0.417896,0.507135 -0.007,-0.0184 -0.01809,-0.04415 -0.02141,-0.0566 -0.0068,-0.02565 -0.0074,-0.03866 -0.0029,-0.05913 0.009,-0.04093 0.04871,-0.112887 0.114632,-0.279685 a 0.04643291,0.04643291 0 0 0 7.43e-4,-0.0079 c 0.106915,-0.103021 0.214959,-0.228282 0.322128,-0.336637 z m -0.491535,0.513665 c -0.0093,0.02309 -0.03207,0.06996 -0.03664,0.09069 -0.0073,0.0336 -0.0057,0.06765 0.0036,0.103024 0.0081,0.03067 0.02358,0.06739 0.04172,0.111367 -0.0017,0.0049 -0.0017,0.0049 -0.0033,0.0097 -0.170024,0.201438 -0.339929,0.402262 -0.507861,0.583314 -0.02217,-0.07416 -0.03667,-0.139529 -0.01886,-0.213663 0.02024,-0.0843 0.06901,-0.19509 0.126602,-0.338816 0.131609,-0.115637 0.262683,-0.221844 0.39468,-0.345709 z m 0.37763,0.009 c -0.01467,0.0311 -0.04049,0.09378 -0.05115,0.121886 -0.0293,0.07728 -0.01567,0.180554 0.0054,0.302539 -0.120929,0.198837 -0.234824,0.357407 -0.3526,0.53797 -0.01534,-0.08288 -0.03706,-0.171336 -0.02503,-0.227449 0.01614,-0.0753 0.06695,-0.192955 0.133131,-0.383071 0.09643,-0.11447 0.193077,-0.23034 0.290205,-0.351875 z m -0.912335,0.446553 c -0.02717,0.06847 -0.06312,0.150089 -0.07691,0.207497 -0.02324,0.09678 -0.01216,0.190339 0.02503,0.294197 -0.0051,0.01536 -0.0072,0.02492 -0.01233,0.0399 -0.22323,0.236324 -0.446289,0.470538 -0.666385,0.676178 -0.01545,-0.08478 -0.02531,-0.173778 0.0033,-0.288392 0.03656,-0.14662 0.101342,-0.310306 0.166505,-0.47521 a 0.04643291,0.04643291 0 0 0 0.0015,-0.01416 c 0.186313,-0.143512 0.372278,-0.279653 0.559372,-0.440024 z m 0.453447,0.110278 c -0.01563,0.04352 -0.0472,0.12184 -0.05514,0.158888 -0.021,0.098 -0.006,0.192339 0.03664,0.367473 -0.196189,0.296026 -0.393888,0.600681 -0.582588,0.853205 -0.03095,-0.277188 0.04089,-0.534385 0.165419,-0.900001 0.144484,-0.153396 0.289721,-0.311561 0.435669,-0.479565 z m -0.578961,0.626845 c -0.104573,0.311046 -0.172968,0.575162 -0.112454,0.865539 -0.234689,0.308012 -0.468405,0.610584 -0.694317,0.867351 -0.03464,-0.328815 0.0612,-0.717574 0.198066,-1.125997 0.201242,-0.185728 0.40496,-0.396314 0.608705,-0.606893 z" /><rect
       style="opacity:1;fill:url(#linearGradient15604);fill-opacity:1;stroke:#4b321b;stroke-width:0.0842224;stroke-linecap:round;stroke-linejoin:round;stroke-dasharray:none;stroke-opacity:1"
       id="rect15596"
       width="8.3500118"
       height="0.25542912"
       x="26.339813"
       y="17.284821" /><path
       id="path12122"
       style="opacity:1;fill:url(#linearGradient15503);fill-opacity:1;stroke:#4b321b;stroke-width:0.0902725;stroke-linecap:round;stroke-linejoin:round;stroke-dasharray:none;stroke-opacity:1"
       d="m 30.218772,16.952056 -0.221485,5.94268 c 0.01816,0.10477 0.254596,0.274608 0.546232,0.274613 0.291665,2.7e-5 0.528142,-0.169822 0.528198,-0.379379 -2.6e-5,-0.0067 -3.71e-4,-0.01347 -8.85e-4,-0.0202 l -0.238154,-5.81771 c -0.167458,0.168083 -0.370351,0.176162 -0.613966,0 z"
       sodipodi:nodetypes="ccccccc" /><ellipse
       style="fill:#b47e3d;fill-opacity:1;stroke:#4b321b;stroke-width:0.0928659;stroke-linecap:round;stroke-linejoin:round;stroke-miterlimit:4;stroke-dasharray:none;stroke-opacity:1"
       id="path2843"
       cx="30.55014"
       cy="16.616837"
       rx="1.2404394"
       ry="0.49002767" /><path
       style="color:#000000;fill:#4b321b;stroke:#ae7938;stroke-width:0.0278598;stroke-linecap:round;stroke-linejoin:round;stroke-dasharray:none;stroke-opacity:1"
       d="m 30.541976,15.581507 a 0.09286583,0.09286583 0 0 0 -0.09286,0.09286 v 0.521283 a 0.09286583,0.09286583 0 0 0 0.09286,0.09286 0.09286583,0.09286583 0 0 0 0.09287,-0.09286 v -0.521282 a 0.09286583,0.09286583 0 0 0 -0.09287,-0.09287 z m -0.479929,0.04063 a 0.09286583,0.09286583 0 0 0 -0.09286,0.09286 v 0.521282 a 0.09286583,0.09286583 0 0 0 0.09286,0.09286 0.09286583,0.09286583 0 0 0 0.09286,-0.09286 v -0.521282 a 0.09286583,0.09286583 0 0 0 -0.09286,-0.09286 z m 1.0052,0.02467 a 0.09286583,0.09286583 0 0 0 -0.09286,0.09286 v 0.521282 a 0.09286583,0.09286583 0 0 0 0.09286,0.09286 0.09286583,0.09286583 0 0 0 0.09286,-0.09286 v -0.521281 a 0.09286583,0.09286583 0 0 0 -0.09286,-0.09287 z m -1.417655,0.08415 a 0.09286583,0.09286583 0 0 0 -0.09286,0.09286 V 16.3451 a 0.09286583,0.09286583 0 0 0 0.09286,0.09286 0.09286583,0.09286583 0 0 0 0.09287,-0.09286 v -0.521283 a 0.09286583,0.09286583 0 0 0 -0.09287,-0.09286 z m 1.846071,0.0653 a 0.09286583,0.09286583 0 0 0 -0.09286,0.09286 V 16.4104 a 0.09286583,0.09286583 0 0 0 0.09286,0.09287 0.09286583,0.09286583 0 0 0 0.09286,-0.09287 v -0.521283 a 0.09286583,0.09286583 0 0 0 -0.09286,-0.09286 z"
       id="path9345-9" /><path
       style="color:#000000;fill:#bc9c6f;fill-opacity:1;stroke:#3a2b13;stroke-width:0.0278598;stroke-linecap:round;stroke-linejoin:round;stroke-dasharray:none;stroke-opacity:1"
       d="m 29.470027,16.201551 c -0.05129,0 -0.09287,0.04158 -0.09287,0.09286 V 16.6549 c 0,0.05129 0.04158,0.09286 0.09287,0.09286 0.05129,0 0.09286,-0.04157 0.09286,-0.09286 v -0.360489 c 0,-0.05129 -0.04158,-0.09286 -0.09286,-0.09286 z m 2.023097,0.104112 c -0.05129,0 -0.09286,0.04158 -0.09286,0.09286 v 0.36049 c 0,0.05129 0.04158,0.09286 0.09286,0.09286 0.05129,0 0.09286,-0.04157 0.09286,-0.09286 v -0.36049 c 0,-0.05129 -0.04158,-0.09286 -0.09286,-0.09286 z m -1.590689,0.117896 c -0.05129,0 -0.09286,0.04157 -0.09286,0.09286 v 0.360489 c 0,0.05129 0.04157,0.09287 0.09286,0.09287 0.05129,0 0.09286,-0.04158 0.09286,-0.09287 v -0.360489 c 0,-0.05129 -0.04158,-0.09286 -0.09286,-0.09286 z m 1.190205,0.01197 c 0,-0.05129 -0.09286,0.04157 -0.09286,0.09286 v 0.360489 c 0,0.05129 0.04157,0.09287 0.09286,0.09287 0.05129,0 0.09286,-0.04158 0.09286,-0.09287 v -0.360489 c 0,-0.05129 -0.09286,-0.04158 -0.09286,-0.09286 z"
       id="path9345-1"
       sodipodi:nodetypes="sssssssssssssssssssssssssssss" /><path
       id="path2843-8"
       style="fill:none;stroke:#704c29;stroke-width:0.185732;stroke-linecap:round;stroke-linejoin:round;stroke-opacity:1"
       d="M 29.924972,16.456818 C 29.578567,16.37739 29.34562,16.22926 29.34562,16.05964 c 0,-0.253451 0.520101,-0.458913 1.161678,-0.458913 0.641576,0 1.161677,0.205462 1.161677,0.458913 0,0.169436 -0.232442,0.317424 -0.578223,0.396919"
       sodipodi:nodetypes="csssc" /><path
       id="rect1525-8"
       style="fill:#ffffff;stroke-width:0.00526708;stroke-linecap:round;stroke-linejoin:round"
       d="m 47.514922,1.5776856 h 0.180464 v 0.1804646 h -0.180464 z m -3.266339,0.2779861 h 0.180465 v 0.1804648 h -0.180465 z m 0.06949,-0.4864759 h 0.180467 v 0.1804646 h -0.180467 z m 6.324192,10.9804582 h 0.180464 v 0.180465 H 50.64227 Z M 60.371789,1.7166787 h 0.180464 V 1.8971433 H 60.371789 Z M 60.1633,12.002171 h 0.180467 v 0.180465 H 60.1633 Z M 1.994665,3.7320794 H 2.1751296 V 3.9125441 H 1.994665 Z m 0.8339591,0.833959 H 3.0090885 V 4.7465029 H 2.8286241 Z M 4.8440246,3.454093 H 5.0244893 V 3.6345578 H 4.8440246 Z M 46.402978,3.6625828 h 0.180464 v 0.1804647 h -0.180464 z m -2.501876,5.9072095 h 0.180465 V 9.7502567 H 43.901102 Z M 37.576913,4.3575487 h 0.180464 V 4.5380132 H 37.576913 Z M 21.523203,12.07167 h 0.180464 v 0.180464 H 21.523203 Z M 19.299311,7.484895 h 0.180464 v 0.1804645 h -0.180464 z m 1.111946,-3.4053328 h 0.180465 v 0.1804645 h -0.180465 z m -7.407408,3.3523376 h 0.180464 v 0.1804646 h -0.180464 z" /><path
       id="path4117"
       style="fill:#4b321b;stroke:#281b0e;stroke-width:0.053305;stroke-linecap:round;stroke-linejoin:round;stroke-dasharray:none"
       d="m 31.433372,21.514559 c 0,0.156979 -0.393298,0.284234 -0.878455,0.284234 -0.485155,0 -0.878453,-0.127255 -0.878453,-0.284234 0,-0.07682 0.202741,-0.110953 0.395055,-0.146674 l -0.0029,0.148953 c 0.02273,0.0934 0.26767,0.11936 0.466497,0.120294 0.203348,8.86e-4 0.460892,-0.07574 0.463487,-0.202361 l -0.0026,-0.08374 c 0.214897,0.04504 0.437407,0.07494 0.437407,0.163533 z"
       sodipodi:nodetypes="sssccsccss" /><path
       style="fill:url(#linearGradient7573);fill-opacity:1;stroke:none;stroke-width:0.0464329;stroke-linecap:round;stroke-linejoin:round"
       d="m 23.972244,32.688727 0.21844,0.9187 c 4.163878,1.561927 8.077412,1.662763 11.978758,-0.08656 L 36.466487,32.7226 c -4.149836,1.421986 -8.321365,1.274595 -12.494243,-0.03387 z"
       id="path1134-7"
       sodipodi:nodetypes="ccccc" /><path
       style="fill:none;fill-opacity:1;stroke:#252525;stroke-width:0.053305;stroke-linecap:round;stroke-linejoin:round;stroke-dasharray:none;stroke-opacity:1"
       d="m 26.592251,17.421763 0.0304,0.274183"
       id="path7877"
       sodipodi:nodetypes="cc" /><path
       style="fill:none;fill-opacity:1;stroke:#252525;stroke-width:0.053305;stroke-linecap:round;stroke-linejoin:round;stroke-dasharray:none;stroke-opacity:1"
       d="m 27.842154,17.369811 0.0304,0.274183"
       id="path7877-5"
       sodipodi:nodetypes="cc" /><path
       style="fill:none;fill-opacity:1;stroke:#252525;stroke-width:0.053305;stroke-linecap:round;stroke-linejoin:round;stroke-dasharray:none;stroke-opacity:1"
       d="m 29.798833,17.402107 0.0304,0.274183"
       id="path7877-9"
       sodipodi:nodetypes="cc" /><path
       style="fill:none;fill-opacity:1;stroke:#252525;stroke-width:0.053305;stroke-linecap:round;stroke-linejoin:round;stroke-dasharray:none;stroke-opacity:1"
       d="m 31.12871,17.634078 0.0304,-0.274183"
       id="path7877-2"
       sodipodi:nodetypes="cc" /><path
       style="fill:none;fill-opacity:1;stroke:#252525;stroke-width:0.053305;stroke-linecap:round;stroke-linejoin:round;stroke-dasharray:none;stroke-opacity:1"
       d="m 33.247601,17.462917 0.0304,0.274182"
       id="path7877-28"
       sodipodi:nodetypes="cc" /><path
       style="fill:none;fill-opacity:1;stroke:#252525;stroke-width:0.053305;stroke-linecap:round;stroke-linejoin:round;stroke-dasharray:none;stroke-opacity:1"
       d="m 34.489853,17.436856 0.0304,0.274183"
       id="path7877-97"
       sodipodi:nodetypes="cc" /><path
       style="fill:#bc9c6f;fill-opacity:1;stroke:#3a2b13;stroke-width:0.0928659;stroke-linecap:round;stroke-linejoin:round;stroke-dasharray:none;stroke-opacity:1"
       d="M 30.504883,16.557023 V 12.622935"
       id="path11593" /><path
       style="fill:#000000;fill-opacity:1;stroke:#5e5e5e;stroke-width:0.0928659;stroke-linecap:round;stroke-linejoin:round;stroke-dasharray:none;stroke-opacity:1"
       d="m 30.440447,12.699803 c -1.216824,-0.0849 -0.470063,0.896478 -1.884068,0.682016 l 0.193155,1.1102 0.3111,0.514065 c 0.79951,-0.04989 0.39595,-0.758868 1.398452,-0.83427 z"
       id="path11647"
       sodipodi:nodetypes="cccccc" /><path
       style="fill:#262626;fill-opacity:1;stroke:#5e5e5e;stroke-width:0.0928659;stroke-linecap:round;stroke-linejoin:round;stroke-dasharray:none;stroke-opacity:1"
       d="m 28.749534,14.492019 c 0.08994,0.128191 0.23389,0.2554 0.400844,0.07091 l -0.08974,0.443149 z"
       id="path11649"
       sodipodi:nodetypes="cccc" /><path
       id="path12124"
       style="color:#000000;fill:#dedede;stroke-width:0.185732;stroke-linecap:round;stroke-linejoin:round"
       d="m 30.013844,13.101393 c -0.0019,3e-6 -0.0038,1.2e-4 -0.0056,2.88e-4 -0.0049,4.27e-4 -0.0096,0.0014 -0.0143,0.0029 -0.112098,0.03627 -0.182246,0.123693 -0.224975,0.225361 -0.03599,0.08889 -0.0539,0.104457 -0.1146,0.122086 -0.06286,-0.0214 -0.01015,-0.06428 -0.0024,-0.136291 -0.01323,0.01062 -0.127967,0.157171 -0.148673,0.252809 -0.006,0.02783 -0.02647,-0.02873 -0.02851,-0.06776 -0.0031,-0.0589 -0.04644,0.129315 -0.06373,0.147906 -0.02547,0.02739 -0.0179,-0.09723 -0.03503,-0.07237 -0.05023,0.07286 -0.0676,0.135769 -0.07036,0.194071 -0.06451,-0.01218 -0.137049,-0.03274 -0.221233,-0.06508 -0.03347,-0.01274 -0.07094,0.004 -0.08378,0.03743 -0.01274,0.03348 0.004,0.07094 0.03743,0.08379 0.106252,0.04081 0.197992,0.06354 0.279491,0.07477 0.007,0.04076 0.01426,0.08128 0.0144,0.123814 3.71e-4,0.134714 0.04729,0.211318 0.112392,0.248107 -0.04773,0.07544 -0.107065,0.149781 -0.183225,0.221809 -0.02604,0.02469 -0.02715,0.06579 -0.0025,0.09185 0.02468,0.02597 0.0657,0.02708 0.09176,0.0025 0.09914,-0.09376 0.1729,-0.191196 0.229967,-0.289379 0.118134,-0.0088 0.291222,-0.118281 0.31107,-0.19551 0,0 0.1311,-0.137545 0.09425,-0.240524 0.0502,5.94e-4 0.07602,0.01257 0.138785,0.03291 0.03417,0.01113 0.07088,-0.0076 0.08197,-0.04176 0.01115,-0.03414 -0.0075,-0.07084 -0.04166,-0.08197 -0.06466,-0.02095 -0.122971,-0.03154 -0.177082,-0.03561 0.0062,-0.05044 0.0041,-0.0974 -0.0119,-0.134756 -0.0089,-0.02099 -0.0778,-0.100412 -0.118245,-0.130724 0.0095,-0.03374 0.01976,-0.06456 0.03119,-0.09175 0.03458,-0.0823 0.07321,-0.12867 0.145408,-0.152032 0.03398,-0.0111 0.05262,-0.04754 0.04176,-0.08159 -0.0086,-0.02718 -0.0339,-0.04535 -0.06201,-0.04531 z m -0.294849,0.481721 a 0.06145743,0.0824135 51.314167 0 1 0.04607,0.01882 0.06145743,0.0824135 51.314167 0 1 -0.02592,0.09953 0.06145743,0.0824135 51.314167 0 1 -0.102794,0.0035 0.06145743,0.0824135 51.314167 0 1 0.02592,-0.09953 0.06145743,0.0824135 51.314167 0 1 0.05673,-0.02237 z m -0.169883,0.140131 a 0.06145743,0.0824135 51.314167 0 1 0.04607,0.01882 0.06145743,0.0824135 51.314167 0 1 -0.02592,0.09953 0.06145743,0.0824135 51.314167 0 1 -0.102794,0.0034 0.06145743,0.0824135 51.314167 0 1 0.02592,-0.09944 0.06145743,0.0824135 51.314167 0 1 0.05673,-0.02237 z" /><path
       style="opacity:1;fill:#030303;fill-opacity:1;stroke:#000000;stroke-width:0.0464329;stroke-linecap:round;stroke-linejoin:round;stroke-dasharray:none;stroke-opacity:1"
       d="m 29.507602,14.062158 c 0.226032,-0.132245 0.314869,-0.231068 0.363754,-0.320158 0.0039,0.08138 0.108557,0.102677 -0.07663,0.296953 -0.04115,0.04191 -0.08515,0.07573 -0.133725,0.08014 -0.03266,0.0029 -0.06579,-0.06007 -0.102518,-0.07941 -0.01605,-0.0084 0.0046,-0.0034 -0.05089,0.02248 z"
       id="path12894"
       sodipodi:nodetypes="cccssc" /><rect
       style="fill:none;fill-opacity:0.217391;stroke:#15ff1b;stroke-width:0.256962;stroke-opacity:1"
       id="helperViewBox"
       width="35.277779"
       height="35.277779"
       x="12.567708"
       y="0"
       inkscape:label="helperViewBox" /></g></svg>
